<?xml version="1.0" encoding="UTF-8"?>
<svg version="1.1" xmlns="http://www.w3.org/2000/svg" width="896" height="896">
<path d="M0 0 C295.68 0 591.36 0 896 0 C896 295.68 896 591.36 896 896 C600.32 896 304.64 896 0 896 C0 600.32 0 304.64 0 0 Z " fill="#FECB65" transform="translate(0,0)"/>
<path d="M0 0 C2.4068603 0.00056558 4.81372095 0.00024469 7.22058105 -0.00088501 C13.69029574 -0.00145379 20.15993474 0.01022278 26.629632 0.02426291 C32.72530733 0.03654657 38.82098931 0.03751624 44.91667494 0.03956665 C56.97376091 0.04392152 69.03081949 0.05716999 81.08789062 0.07617188 C92.78580592 0.09458833 104.48371372 0.10871644 116.18164062 0.1171875 C116.90521308 0.11771295 117.62878553 0.11823839 118.37428442 0.11877976 C122.00498507 0.12139023 125.63568577 0.12391755 129.26638651 0.12640357 C159.28796173 0.14706714 189.30950498 0.18238253 219.33105469 0.22705078 C219.18491843 3.10680231 219.03505319 5.9862794 218.88305664 8.86572266 C218.84233284 9.67579773 218.80160904 10.4858728 218.75965118 11.32049561 C218.44356239 17.23082154 217.78254773 22.93823159 216.51855469 28.72705078 C216.34549805 29.56163818 216.17244141 30.39622559 215.99414062 31.25610352 C214.8451354 36.55239652 213.37940326 41.52806324 211.06542969 46.44970703 C210.14011803 48.36864389 210.14011803 48.36864389 210.33105469 51.22705078 C211.13027344 51.62794922 211.92949219 52.02884766 212.75292969 52.44189453 C238.86494469 65.95762061 260.04988487 88.41457455 269.140625 116.75048828 C277.83742938 146.49154973 273.3564177 174.05105179 268.69125366 204.17227173 C267.42028118 212.43860667 266.32053193 220.72204954 265.29801941 229.02262878 C265.18492935 229.92515884 265.07183929 230.8276889 264.95532227 231.75756836 C264.85834549 232.55068924 264.76136871 233.34381012 264.66145325 234.16096497 C264.33105469 236.22705078 264.33105469 236.22705078 263.33105469 239.22705078 C264.64460938 239.32244141 265.95816406 239.41783203 267.31152344 239.51611328 C272.21837277 240.07059205 276.21295282 241.47363965 280.64355469 243.60205078 C281.37485596 243.95001709 282.10615723 244.2979834 282.85961914 244.65649414 C290.20802962 248.35283072 295.71073488 253.30147399 301.33105469 259.22705078 C302.23210937 260.10103516 302.23210937 260.10103516 303.15136719 260.99267578 C312.00846192 270.17437608 316.5124386 283.74315547 317.33105469 296.22705078 C317.40839844 297.24669922 317.48574219 298.26634766 317.56542969 299.31689453 C318.24199452 315.72359176 312.66821185 330.11949754 301.95605469 342.41455078 C300.431755 344.03522881 298.89084758 345.64050329 297.33105469 347.22705078 C296.69296875 347.87802734 296.05488281 348.52900391 295.39746094 349.19970703 C284.02217372 359.96011386 268.55032437 363.98010183 253.33105469 365.22705078 C253.15155273 365.77304932 252.97205078 366.31904785 252.78710938 366.8815918 C241.35115379 401.14317355 221.82725268 434.28986505 193.33105469 457.22705078 C192.33976562 458.04431641 191.34847656 458.86158203 190.32714844 459.70361328 C151.60771392 491.22705078 151.60771392 491.22705078 135.33105469 491.22705078 C135.66105469 504.75705078 135.99105469 518.28705078 136.33105469 532.22705078 C139.30105469 533.05205078 142.27105469 533.87705078 145.33105469 534.72705078 C153.30140667 536.97805081 161.17424012 539.44632187 169.01855469 542.10205078 C177.54759284 544.98693374 186.10096292 547.76441602 194.70605469 550.41455078 C195.80216064 550.75212402 196.8982666 551.08969727 198.02758789 551.4375 C203.50532335 553.10867353 208.99086039 554.69762993 214.52954102 556.15332031 C236.19378593 561.86402985 256.06037936 570.91706265 273.33105469 585.22705078 C274.10320312 585.85740234 274.87535156 586.48775391 275.67089844 587.13720703 C300.72756701 608.25021567 312.10165589 637.85065799 317.33105469 669.22705078 C317.33105469 693.31705078 317.33105469 717.40705078 317.33105469 742.22705078 C151.01105469 742.22705078 -15.30894531 742.22705078 -186.66894531 742.22705078 C-186.66894531 658.04217499 -186.66894531 658.04217499 -180.98144531 642.10205078 C-180.7279834 641.37034668 -180.47452148 640.63864258 -180.21337891 639.88476562 C-174.55453996 624.12352433 -166.24604404 609.70378702 -154.74707031 597.48095703 C-152.6228955 595.24173767 -152.6228955 595.24173767 -150.72363281 592.71533203 C-146.99314824 588.19761592 -142.27608922 584.80969503 -137.66894531 581.22705078 C-136.54359375 580.34339844 -136.54359375 580.34339844 -135.39550781 579.44189453 C-119.17651027 567.40569109 -100.76971939 561.12268077 -81.66894531 555.22705078 C-79.37703857 554.50645976 -77.08536895 553.78511407 -74.79394531 553.06298828 C-64.72717606 549.9115122 -54.64067571 546.89770785 -44.45214844 544.16625977 C-36.89048861 542.0947739 -29.48499087 539.55245999 -22.07666016 536.99267578 C-20.63540771 536.49960938 -20.63540771 536.49960938 -19.16503906 535.99658203 C-18.32126709 535.70372314 -17.47749512 535.41086426 -16.6081543 535.10913086 C-12.68688361 533.93232622 -8.66550246 533.11517459 -4.66894531 532.22705078 C-4.66894531 518.69705078 -4.66894531 505.16705078 -4.66894531 491.22705078 C-9.12394531 489.74205078 -9.12394531 489.74205078 -13.66894531 488.22705078 C-27.77307067 482.32424074 -40.59472225 474.54516497 -52.66894531 465.22705078 C-53.64734375 464.47939453 -54.62574219 463.73173828 -55.63378906 462.96142578 C-87.89403259 437.38061593 -109.7914115 404.20110197 -122.66894531 365.22705078 C-123.27738281 365.21287109 -123.88582031 365.19869141 -124.51269531 365.18408203 C-141.19688864 364.27626563 -158.11477202 357.5266546 -169.66894531 345.22705078 C-176.03905902 337.82394567 -180.5085707 330.46030209 -183.66894531 321.22705078 C-183.98734375 320.38013672 -184.30574219 319.53322266 -184.63378906 318.66064453 C-189.59540515 303.68433791 -187.21006616 287.07934045 -180.54394531 273.10205078 C-177.21125252 266.52976218 -172.93168544 261.34683023 -167.66894531 256.22705078 C-166.981875 255.51935547 -166.29480469 254.81166016 -165.58691406 254.08251953 C-156.06898853 244.84712983 -145.55719081 241.00702664 -132.66894531 239.22705078 C-132.76393311 238.57486572 -132.8589209 237.92268066 -132.95678711 237.25073242 C-135.8090864 217.39635951 -137.94826252 197.49897038 -139.91772461 177.53979492 C-140.11860423 175.51106294 -140.31953106 173.48233564 -140.52050781 171.45361328 C-140.61693069 170.47203247 -140.71335358 169.49045166 -140.81269836 168.47912598 C-141.30502706 163.54597526 -141.85916831 158.63249485 -142.53335571 153.72099304 C-143.61942899 145.79488089 -143.97990946 138.04658104 -143.9296875 130.06225586 C-143.91888927 128.02899786 -143.92971318 125.99661196 -143.94238281 123.96337891 C-143.98042789 89.6273082 -129.99191728 60.28334639 -106.54394531 35.72705078 C-90.93936545 20.51258542 -72.34311265 10.70099435 -51.66894531 4.22705078 C-50.61894726 3.89538847 -49.5689492 3.56372616 -48.48713303 3.22201347 C-44.23606293 2.1142481 -40.13688455 1.53908791 -35.77325439 1.11624146 C-34.90680085 1.03193284 -34.04034731 0.94762423 -33.14763761 0.86076081 C-22.10982427 -0.11546715 -11.07159375 -0.03693582 0 0 Z " fill="#F5C5B8" transform="translate(382.6689453125,153.77294921875)"/>
<path d="M0 0 C0.00546844 0.9305571 0.00546844 0.9305571 0.01104736 1.87991333 C0.05322485 8.40289271 0.12281093 14.92519133 0.20751953 21.44775391 C0.23554948 23.87411655 0.2568523 26.30056746 0.27099609 28.72705078 C0.23227028 47.74456201 0.23227028 47.74456201 5 66 C5.40903564 67.02158203 5.81807129 68.04316406 6.23950195 69.09570312 C13.2248767 85.80893687 25.51595885 98.22346031 41.9375 105.75 C59.86598489 113.06774893 78.7590036 113.57281668 96.84716797 106.25244141 C104.28622694 103.08427747 110.55707748 99.2207146 116.328125 93.50390625 C118 92 118 92 120 92 C120.26425781 91.41863281 120.52851563 90.83726562 120.80078125 90.23828125 C122.04672352 87.91279291 123.46765163 86.18283896 125.1875 84.1875 C135.39493347 71.23109175 139.41519591 55.69908308 139.51171875 39.453125 C139.52966995 38.31591003 139.54762115 37.17869507 139.56611633 36.00701904 C139.61973209 32.4213823 139.65395783 28.83587485 139.6875 25.25 C139.72071611 22.79946135 139.75520965 20.34893967 139.79101562 17.8984375 C139.87542988 11.93240783 139.94398303 5.96636035 140 0 C146.13187897 1.64605322 152.23544424 3.33202194 158.2890625 5.25 C159.66826941 5.68497466 161.04750275 6.11986555 162.42675781 6.5546875 C163.15930786 6.78639648 163.89185791 7.01810547 164.64660645 7.25683594 C171.90714444 9.54959777 179.17650903 11.81445902 186.44433594 14.08398438 C188.3948502 14.69364195 190.34504712 15.30431579 192.29492188 15.91601562 C202.08615672 18.98687303 211.87293492 22.01231945 221.77734375 24.69921875 C228.06194177 26.40943257 234.16320821 28.31308059 240.1875 30.8125 C241.01644775 31.1523291 241.84539551 31.4921582 242.69946289 31.84228516 C255.80237113 37.32170609 267.06634711 43.94068761 278 53 C278.77214844 53.63035156 279.54429687 54.26070312 280.33984375 54.91015625 C305.39651232 76.02316489 316.7706012 105.62360721 322 137 C322 161.09 322 185.18 322 210 C155.68 210 -10.64 210 -182 210 C-182 125.81512421 -182 125.81512421 -176.3125 109.875 C-176.05903809 109.1432959 -175.80557617 108.4115918 -175.54443359 107.65771484 C-169.88559465 91.89647355 -161.57709873 77.47673624 -150.078125 65.25390625 C-147.95395019 63.01468689 -147.95395019 63.01468689 -146.0546875 60.48828125 C-142.32420292 55.97056514 -137.60714391 52.58264425 -133 49 C-132.24976563 48.41089844 -131.49953125 47.82179688 -130.7265625 47.21484375 C-114.50756496 35.17864031 -96.10077407 28.89562999 -77 23 C-74.70809325 22.27940898 -72.41642364 21.55806329 -70.125 20.8359375 C-60.0594138 17.68483178 -49.97337825 14.67566957 -39.78759766 11.93920898 C-32.17183697 9.84955053 -24.70717902 7.3059525 -17.23193359 4.765625 C-3.2083812 0 -3.2083812 0 0 0 Z " fill="#5A45FE" transform="translate(378,686)"/>
<path d="M0 0 C2.4068603 0.00056558 4.81372095 0.00024469 7.22058105 -0.00088501 C13.69029574 -0.00145379 20.15993474 0.01022278 26.629632 0.02426291 C32.72530733 0.03654657 38.82098931 0.03751624 44.91667494 0.03956665 C56.97376091 0.04392152 69.03081949 0.05716999 81.08789062 0.07617188 C92.78580592 0.09458833 104.48371372 0.10871644 116.18164062 0.1171875 C116.90521308 0.11771295 117.62878553 0.11823839 118.37428442 0.11877976 C122.00498507 0.12139023 125.63568577 0.12391755 129.26638651 0.12640357 C159.28796173 0.14706714 189.30950498 0.18238253 219.33105469 0.22705078 C219.18491843 3.10680231 219.03505319 5.9862794 218.88305664 8.86572266 C218.84233284 9.67579773 218.80160904 10.4858728 218.75965118 11.32049561 C218.44356239 17.23082154 217.78254773 22.93823159 216.51855469 28.72705078 C216.34549805 29.56163818 216.17244141 30.39622559 215.99414062 31.25610352 C214.8451354 36.55239652 213.37940326 41.52806324 211.06542969 46.44970703 C210.14011803 48.36864389 210.14011803 48.36864389 210.33105469 51.22705078 C211.13027344 51.62794922 211.92949219 52.02884766 212.75292969 52.44189453 C238.86494469 65.95762061 260.04988487 88.41457455 269.140625 116.75048828 C277.82187031 146.4383413 273.34727811 173.89068858 268.72654724 203.95213318 C267.67794283 210.80774208 266.71267407 217.66934476 265.82324219 224.54736328 C265.65344093 225.85392128 265.65344093 225.85392128 265.48020935 227.18687439 C265.05401175 230.47863828 264.62990852 233.77057109 264.21963501 237.06436157 C263.94496582 239.2641166 263.66042051 241.46239105 263.37402344 243.66064453 C263.21957764 244.888396 263.06513184 246.11614746 262.90600586 247.38110352 C262.33105469 250.22705078 262.33105469 250.22705078 260.33105469 252.22705078 C250.25716612 245.19831104 241.11748045 237.76542234 233.33105469 228.22705078 C232.67105469 227.56705078 232.01105469 226.90705078 231.33105469 226.22705078 C231.99105469 226.22705078 232.65105469 226.22705078 233.33105469 226.22705078 C234.01938959 215.13511435 234.01938959 215.13511435 232.33105469 204.22705078 C227.54863449 198.96359999 221.39850106 197.59779586 214.64355469 196.16455078 C213.55042969 195.85517578 212.45730469 195.54580078 211.33105469 195.22705078 C210.36230469 192.76220703 210.36230469 192.76220703 209.33105469 189.22705078 C208.75707192 187.73128411 208.16577914 186.24209632 207.56152344 184.75830078 C207.2325708 183.94731934 206.90361816 183.13633789 206.56469727 182.30078125 C206.21947021 181.4514502 205.87424316 180.60211914 205.51855469 179.72705078 C194.75910394 152.96058304 182.63645959 120.36054197 183.33105469 91.22705078 C182.904375 91.61634766 182.47769531 92.00564453 182.03808594 92.40673828 C151.81841623 119.44866953 118.18235387 129.42111526 78.33105469 132.22705078 C77.49171387 132.28634766 76.65237305 132.34564453 75.78759766 132.40673828 C68.97239112 132.85547616 62.15850152 133.06596277 55.33105469 133.22705078 C54.61351013 133.24614502 53.89596558 133.26523926 53.15667725 133.28491211 C32.87348851 133.81880618 12.90412468 133.70635771 -7.23144531 130.97705078 C-7.99538605 130.87463074 -8.75932678 130.77221069 -9.54641724 130.66668701 C-24.37515031 128.62821144 -38.87610867 125.38889629 -53.10644531 120.72705078 C-54.4396582 120.30359375 -54.4396582 120.30359375 -55.79980469 119.87158203 C-61.86777632 117.91531401 -67.7791027 115.66564673 -73.66894531 113.22705078 C-73.74411377 114.01128418 -73.81928223 114.79551758 -73.89672852 115.60351562 C-76.39255555 141.36920396 -80.14643614 164.72240476 -88.79394531 189.16455078 C-89.13063232 190.13102539 -89.46731934 191.0975 -89.81420898 192.09326172 C-90.30304565 193.44145996 -90.30304565 193.44145996 -90.80175781 194.81689453 C-91.23319092 196.02140259 -91.23319092 196.02140259 -91.67333984 197.25024414 C-93.26639465 200.41330563 -95.64187189 201.21644814 -98.84082031 202.46923828 C-99.77410156 203.04931641 -100.70738281 203.62939453 -101.66894531 204.22705078 C-102.24127209 207.0746896 -102.24127209 207.0746896 -101.91894531 210.35205078 C-102.21594983 220.28633991 -107.19987752 227.2017058 -112.66894531 235.22705078 C-113.11044922 235.87802734 -113.55195313 236.52900391 -114.00683594 237.19970703 C-118.94836805 244.41567747 -124.21010508 251.39446267 -129.66894531 258.22705078 C-131.87180944 254.92275459 -132.07117762 253.32428523 -132.45922852 249.43432617 C-132.58325043 248.23358459 -132.70727234 247.03284302 -132.83505249 245.79571533 C-132.96199493 244.48528259 -133.08893738 243.17484985 -133.21972656 241.82470703 C-133.35952012 240.44667551 -133.50013137 239.06872673 -133.64151001 237.69085693 C-134.01918774 233.99166194 -134.38716812 230.29156397 -134.75309372 226.59119034 C-135.36334611 220.44023239 -135.98930241 214.29083735 -136.61445045 208.1413784 C-136.77087385 206.60177262 -136.92694831 205.06213134 -137.08267784 203.52245522 C-138.0425674 194.0418841 -139.06537413 184.57465153 -140.23925781 175.11767578 C-145.87085323 129.63123516 -146.73480001 87.64408732 -118.41503906 49.16455078 C-100.77350507 26.94694805 -78.58075562 12.65426038 -51.66894531 4.22705078 C-50.61894726 3.89538847 -49.5689492 3.56372616 -48.48713303 3.22201347 C-44.23606293 2.1142481 -40.13688455 1.53908791 -35.77325439 1.11624146 C-34.90680085 1.03193284 -34.04034731 0.94762423 -33.14763761 0.86076081 C-22.10982427 -0.11546715 -11.07159375 -0.03693582 0 0 Z " fill="#362C47" transform="translate(382.6689453125,153.77294921875)"/>
<path d="M0 0 C0.1858667 1.02134033 0.3717334 2.04268066 0.56323242 3.0949707 C5.30093537 29.7710827 5.30093537 29.7710827 12 56 C12.19271484 56.6604834 12.38542969 57.3209668 12.58398438 58.00146484 C15.64165329 68.45696561 19.31261684 78.67117113 23.20507812 88.84228516 C23.9204349 90.7840306 24.55170476 92.75626016 25.171875 94.73046875 C27.01848842 100.519352 27.01848842 100.519352 31.40234375 104.40234375 C34.24621691 105.39550562 37.08915657 106.22583951 40 107 C44.42933982 108.17801591 47.28065856 109.21093833 50 113 C51.87964996 120.02754686 52.10531357 128.0065363 50 135 C46.52672844 138.94082734 43.03753022 140.6464254 38 142 C37.34 142 36.68 142 36 142 C36.00999275 142.85538864 36.00999275 142.85538864 36.02018738 143.72805786 C36.08721301 149.73157031 36.1320755 155.73497433 36.16479492 161.73876953 C36.17976387 163.97123542 36.20014629 166.2036725 36.22631836 168.43603516 C36.45674922 188.61454926 36.00386063 205.23479568 21.59765625 220.69921875 C13.7495488 227.65039963 3.42820053 231.23406028 -6.9699707 231.2746582 C-7.62792633 231.27976913 -8.28588196 231.28488007 -8.96377563 231.29014587 C-11.11787261 231.30393456 -13.27164565 231.30309294 -15.42578125 231.30078125 C-16.93881852 231.3046748 -18.45185472 231.30901082 -19.96488953 231.31376648 C-23.12954253 231.32120621 -26.29408393 231.32095434 -29.45874023 231.31567383 C-33.48998015 231.30988998 -37.520759 231.32679459 -41.5519228 231.3500185 C-44.6757214 231.36484004 -47.79941121 231.36561604 -50.92323875 231.36250877 C-52.4082143 231.36301802 -53.89319658 231.36818033 -55.37813759 231.37832069 C-70.74566383 231.47037596 -80.62267646 228.65327408 -92.07421875 218.0859375 C-99.3017873 210.46641838 -104.27147314 199.33913452 -104.22705078 188.81103516 C-104.22682419 187.00984726 -104.22682419 187.00984726 -104.22659302 185.17227173 C-104.21627045 183.89081268 -104.20594788 182.60935364 -104.1953125 181.2890625 C-104.1915779 179.95242526 -104.18873304 178.61578526 -104.18673706 177.27914429 C-104.17913577 173.77744868 -104.15951788 170.2759215 -104.1373291 166.77429199 C-104.11679474 163.19460367 -104.10760926 159.61488706 -104.09765625 156.03515625 C-104.077332 149.02328921 -104.03817722 142.01188345 -104 135 C-113.24 135 -122.48 135 -132 135 C-131.96519531 139.14304687 -131.93039062 143.28609375 -131.89453125 147.5546875 C-131.87520365 150.88288097 -131.85894757 154.21105833 -131.84474945 157.53927612 C-131.82898551 161.03899621 -131.8079621 164.53849408 -131.77368164 168.03808594 C-131.73449306 172.06447353 -131.72022553 176.09063015 -131.70703125 180.1171875 C-131.69154739 181.35612762 -131.67606354 182.59506775 -131.66011047 183.87155151 C-131.65752963 197.31683563 -135.39985609 209.47170617 -144.875 219.375 C-156.10812347 229.75873795 -167.82882161 231.4755772 -182.80078125 231.3984375 C-184.2088384 231.40046566 -185.61689451 231.40338322 -187.02494812 231.40713501 C-189.96066393 231.41152793 -192.89610372 231.40522935 -195.83178711 231.39111328 C-199.55316726 231.37407065 -203.27389562 231.38385029 -206.99525166 231.40183067 C-209.89961956 231.41279233 -212.80383894 231.4091655 -215.7082119 231.4014473 C-217.73405261 231.39853348 -219.75989962 231.40748454 -221.78572083 231.4168396 C-236.73804493 231.30504496 -247.97610842 229.3195419 -259 219 C-269.36993189 208.08625613 -272.33637665 195.74308094 -272.1953125 181.0625 C-272.1924826 179.94182129 -272.18965271 178.82114258 -272.18673706 177.66650391 C-272.17560251 174.11089089 -272.15051014 170.55553602 -272.125 167 C-272.11496152 164.57943074 -272.10583719 162.1588575 -272.09765625 159.73828125 C-272.07568521 153.82543376 -272.04227491 147.91273533 -272 142 C-273.35061523 141.56433716 -273.35061523 141.56433716 -274.72851562 141.11987305 C-282.98158407 138.29473686 -282.98158407 138.29473686 -286 135 C-286.98362535 131.18845177 -286.75976023 127.59139648 -286.5 123.6875 C-286.46390625 122.66076172 -286.4278125 121.63402344 -286.390625 120.57617188 C-286.29651459 118.04695455 -286.16524592 115.5254026 -286 113 C-285.40469482 112.7637793 -284.80938965 112.52755859 -284.19604492 112.28417969 C-278.03283332 109.43143235 -275.65270224 106.62883548 -273.31298828 100.29931641 C-272.98282715 99.29304199 -272.65266602 98.28676758 -272.3125 97.25 C-271.94366699 96.19087402 -271.57483398 95.13174805 -271.19482422 94.04052734 C-263.10209798 70.10792037 -260.02020301 46.07002275 -258 21 C-257.4831665 21.1858667 -256.96633301 21.3717334 -256.43383789 21.56323242 C-238.16193181 28.10980802 -220.16790842 33.76651742 -201 37 C-199.93136719 37.18481934 -198.86273438 37.36963867 -197.76171875 37.56005859 C-174.49179559 41.4504577 -151.52876426 41.53650541 -128 41 C-126.76056641 40.97244629 -125.52113281 40.94489258 -124.24414062 40.91650391 C-117.81813876 40.74998229 -111.41250768 40.44502035 -105 40 C-104.10587402 39.94086426 -103.21174805 39.88172852 -102.29052734 39.82080078 C-82.26414112 38.43785055 -62.62369062 35.77828559 -44 28 C-43.29004883 27.70609375 -42.58009766 27.4121875 -41.84863281 27.109375 C-27.34840112 20.99036797 -15.4267277 12.7180074 -4.109375 1.8359375 C-2 0 -2 0 0 0 Z " fill="#1C0740" transform="translate(566,245)"/>
<path d="M0 0 C0.65451645 0.20255905 1.3090329 0.4051181 1.98338318 0.61381531 C4.98665021 1.54129069 7.99135133 2.46403493 10.99609375 3.38671875 C12.02553101 3.70539917 13.05496826 4.02407959 14.11560059 4.35241699 C22.02717392 6.77644872 29.82282621 8.67569904 38 10 C39.06887451 10.17901855 40.13774902 10.35803711 41.23901367 10.54248047 C49.61847101 11.84153474 57.77527283 12.35136714 66.25 12.3125 C67.54268799 12.30758545 68.83537598 12.3026709 70.16723633 12.29760742 C92.33892961 12.03325522 112.69047377 8.40548809 133.78198242 1.91381836 C135.53075935 1.37560707 135.53075935 1.37560707 137.31486511 0.82652283 C138.20095963 0.55377029 139.08705414 0.28101776 140 0 C140.0930824 11.8838363 140.16395799 23.76758446 140.20724869 35.65171242 C140.22803634 41.17126051 140.25619125 46.69055738 140.30175781 52.20996094 C140.34553212 57.54626272 140.36920328 62.88232435 140.37950897 68.21879196 C140.38684404 70.2447525 140.40116608 72.27070136 140.42292023 74.29655838 C140.57574769 89.13185966 139.25883397 101.85834311 132.25 115.25 C131.90348389 115.9198291 131.55696777 116.5896582 131.19995117 117.27978516 C121.9894204 134.56698639 106.57825993 145.57245499 88.0625 151.375 C70.08547096 155.73585556 51.83907235 153.67918747 35.625 144.75 C16.99731586 132.90065236 5.95106815 117.19052221 0.45729065 95.8964386 C-0.1761328 91.88439038 -0.13064577 87.95070824 -0.11352539 83.89526367 C-0.11367142 82.98745148 -0.11381744 82.07963928 -0.1139679 81.14431763 C-0.11327281 78.15217679 -0.10549931 75.16009868 -0.09765625 72.16796875 C-0.09579064 70.09003229 -0.09436741 68.01209538 -0.09336853 65.93415833 C-0.08955465 60.47122987 -0.07973399 55.00832809 -0.06866455 49.54541016 C-0.05842616 43.96842815 -0.05386571 38.39144182 -0.04882812 32.81445312 C-0.03811072 21.87629037 -0.02104784 10.93814741 0 0 Z " fill="#F1AC9B" transform="translate(378,645)"/>
<path d="M0 0 C0.1858667 1.02134033 0.3717334 2.04268066 0.56323242 3.0949707 C5.30093537 29.7710827 5.30093537 29.7710827 12 56 C12.19271484 56.6604834 12.38542969 57.3209668 12.58398438 58.00146484 C17.06711256 73.33123123 22.6533486 88.34713202 29 103 C27.741875 102.608125 26.48375 102.21625 25.1875 101.8125 C23.12621397 101.2042044 21.0634937 100.60076399 19 100 C18.35595215 99.80712402 17.7119043 99.61424805 17.04833984 99.41552734 C-19.45004995 88.59081299 -51.81683466 90.57846104 -87.30371094 103.10205078 C-88.63837402 103.54653564 -88.63837402 103.54653564 -90 104 C-91.07612549 104.36029297 -92.15225098 104.72058594 -93.26098633 105.09179688 C-97.62832849 106.15262044 -101.61552495 106.32365099 -106.08984375 106.3359375 C-107.3831234 106.3459227 -107.3831234 106.3459227 -108.70252991 106.35610962 C-110.52375168 106.36619562 -112.3450101 106.3709279 -114.16625977 106.37060547 C-116.89860293 106.37493832 -119.6292744 106.41118781 -122.36132812 106.44921875 C-138.1611627 106.55316857 -151.16004213 103.18930072 -166 97.875 C-175.37824139 94.66203638 -184.03976689 92.38551219 -194 92 C-194.77843262 91.96438965 -195.55686523 91.9287793 -196.35888672 91.89208984 C-215.27884902 91.14558793 -233.90526201 93.37194182 -252 99 C-253.07765625 99.33128906 -254.1553125 99.66257812 -255.265625 100.00390625 C-260.69646174 101.74368435 -265.91121116 103.7191553 -271.0625 106.16796875 C-273.02498292 107.01072855 -274.92654032 107.5056135 -277 108 C-276.75878418 107.40388916 -276.51756836 106.80777832 -276.26904297 106.19360352 C-265.05817406 78.19308572 -260.41207111 50.93297066 -258 21 C-257.4831665 21.1858667 -256.96633301 21.3717334 -256.43383789 21.56323242 C-238.16193181 28.10980802 -220.16790842 33.76651742 -201 37 C-199.93136719 37.18481934 -198.86273438 37.36963867 -197.76171875 37.56005859 C-174.49179559 41.4504577 -151.52876426 41.53650541 -128 41 C-126.76056641 40.97244629 -125.52113281 40.94489258 -124.24414062 40.91650391 C-117.81813876 40.74998229 -111.41250768 40.44502035 -105 40 C-104.10587402 39.94086426 -103.21174805 39.88172852 -102.29052734 39.82080078 C-82.26414112 38.43785055 -62.62369062 35.77828559 -44 28 C-43.29004883 27.70609375 -42.58009766 27.4121875 -41.84863281 27.109375 C-27.34840112 20.99036797 -15.4267277 12.7180074 -4.109375 1.8359375 C-2 0 -2 0 0 0 Z " fill="#F4C4B8" transform="translate(566,245)"/>
<path d="M0 0 C0.79812607 0.17794098 1.59625214 0.35588196 2.41856384 0.53921509 C3.02044022 0.67371063 3.62231659 0.80820618 4.24243164 0.94677734 C4.33532812 9.30077256 4.40629546 17.65455005 4.44968033 26.00893497 C4.47050854 29.88871131 4.49873771 33.76813288 4.54418945 37.64770508 C4.58781923 41.39544066 4.61160457 45.14283615 4.62194061 48.8908062 C4.62930146 50.31690254 4.6436755 51.74298137 4.66535187 53.16893196 C4.87253276 67.36961009 4.87253276 67.36961009 0.24243164 72.94677734 C-3.69697196 75.85878492 -6.54021588 76.32829091 -11.39624023 76.35083008 C-12.04242813 76.35769333 -12.68861603 76.36455658 -13.35438538 76.37162781 C-15.47859004 76.38984658 -17.60205276 76.38606627 -19.72631836 76.38037109 C-21.20935302 76.38493486 -22.69238556 76.39024102 -24.17541504 76.39625549 C-27.27889617 76.40517654 -30.38211983 76.40277462 -33.4855957 76.39282227 C-37.45700764 76.38132567 -41.42753133 76.40155864 -45.3988266 76.4307394 C-48.45983496 76.44910895 -51.52063064 76.44880767 -54.5816803 76.44310188 C-56.04567207 76.4429488 -57.50967838 76.44898239 -58.97361755 76.46139336 C-61.02260681 76.47631961 -63.06995753 76.46561816 -65.11889648 76.44848633 C-66.86499207 76.44823708 -66.86499207 76.44823708 -68.6463623 76.44798279 C-72.50767535 75.82593748 -74.0465044 74.74261211 -76.75756836 71.94677734 C-79.39440107 67.74034306 -80.12882264 64.59496553 -80.09814453 59.66601562 C-80.09791794 58.44520294 -80.09769135 57.22439026 -80.09745789 55.96658325 C-80.08197403 54.66325043 -80.06649017 53.3599176 -80.05053711 52.01708984 C-80.04493539 50.65803497 -80.04066801 49.29897401 -80.03767395 47.93991089 C-80.0262703 44.37893679 -79.99684264 40.81833519 -79.96356201 37.25750732 C-79.93276379 33.61752357 -79.91914788 29.97747909 -79.90405273 26.33740234 C-79.87196792 19.20704249 -79.82082662 12.07693435 -79.75756836 4.94677734 C-78.1658007 4.30466328 -76.5734917 3.66389105 -74.98095703 3.02368164 C-74.09429855 2.666707 -73.20764008 2.30973236 -72.29411316 1.94194031 C-69.25466825 0.74947448 -66.1906727 -0.28144027 -63.07006836 -1.24072266 C-62.03495117 -1.56427734 -60.99983398 -1.88783203 -59.93334961 -2.22119141 C-40.69912059 -7.26041746 -19.12782121 -4.26872824 0 0 Z " fill="#F7D6CD" transform="translate(569.757568359375,370.05322265625)"/>
<path d="M0 0 C1.29679687 -0.01095703 2.59359375 -0.02191406 3.9296875 -0.03320312 C18.43325891 0.07535654 31.05097245 4.6972242 44.5 9.5625 C44.59292643 17.3949229 44.6638791 25.2272152 44.70724869 33.06005192 C44.72807046 36.69770425 44.75628732 40.33497776 44.80175781 43.97241211 C44.84541134 47.48673125 44.86917776 51.00068741 44.87950897 54.51525688 C44.89043132 56.49996295 44.92162628 58.48452421 44.95318604 60.4690094 C44.95488554 67.33590451 44.91975913 72.13306265 40.5 77.5625 C36.56385412 80.47813766 33.71591907 80.94402022 28.86132812 80.96655273 C28.21514023 80.97341599 27.56895233 80.98027924 26.90318298 80.98735046 C24.77897832 81.00556923 22.6555156 81.00178893 20.53125 80.99609375 C19.04821534 81.00065752 17.5651828 81.00596368 16.08215332 81.01197815 C12.97867219 81.0208992 9.87544853 81.01849728 6.77197266 81.00854492 C2.80056072 80.99704833 -1.16996297 81.01728129 -5.14125824 81.04646206 C-8.2022666 81.0648316 -11.26306228 81.06453032 -14.32411194 81.05882454 C-15.78810371 81.05867146 -17.25211002 81.06470505 -18.71604919 81.07711601 C-20.76503845 81.09204227 -22.81238917 81.08134082 -24.86132812 81.06420898 C-26.60742371 81.06395973 -26.60742371 81.06395973 -28.38879395 81.06370544 C-32.250107 80.44166014 -33.78893604 79.35833476 -36.5 76.5625 C-39.231347 72.24028513 -39.87017951 68.98658881 -39.84057617 63.91455078 C-39.84034958 62.61365509 -39.84012299 61.3127594 -39.83988953 59.97244263 C-39.82457301 58.56756235 -39.80892508 57.16268565 -39.79296875 55.7578125 C-39.7873677 54.30907634 -39.78310001 52.86033447 -39.78010559 51.41159058 C-39.76869677 47.61389245 -39.7392644 43.81654307 -39.70599365 40.01898193 C-39.67520678 36.1377026 -39.66158192 32.25636646 -39.64648438 28.375 C-39.6143903 20.77067501 -39.56324272 13.16663653 -39.5 5.5625 C-26.22193372 2.33138848 -13.69988596 -0.25809357 0 0 Z " fill="#F7D6CD" transform="translate(361.5,365.4375)"/>
<path d="M0 0 C6.44141839 0.46777719 11.50021072 1.58284183 17.3125 4.375 C18.04380127 4.72296631 18.77510254 5.07093262 19.52856445 5.42944336 C26.87697494 9.12577994 32.37968019 14.07442321 38 20 C38.60070312 20.58265625 39.20140625 21.1653125 39.8203125 21.765625 C48.67740723 30.9473253 53.18138391 44.51610469 54 57 C54.07734375 58.01964844 54.1546875 59.03929687 54.234375 60.08984375 C54.91093983 76.49654098 49.33715716 90.89244676 38.625 103.1875 C37.10070032 104.80817803 35.55979289 106.41345251 34 108 C33.36191406 108.65097656 32.72382812 109.30195313 32.06640625 109.97265625 C22.26387909 119.24531707 7.62558585 125.21186275 -5.875 125.25 C-7.25112932 125.18805206 -8.62719183 125.11387349 -10 125 C-9.731875 123.845 -9.46375 122.69 -9.1875 121.5 C-3.77790539 96.86907984 -2.66199155 72.89195285 -2.45739746 47.77062988 C-2.40478301 41.43591445 -2.33975733 35.10134182 -2.26918221 28.76680374 C-2.24667099 26.57952438 -2.23021102 24.39226258 -2.21446228 22.20492554 C-2.05244309 4.10488619 -2.05244309 4.10488619 0 0 Z " fill="#F2AD9A" transform="translate(646,393)"/>
<path d="M0 0 C0.19916016 1.66289062 0.19916016 1.66289062 0.40234375 3.359375 C0.58059757 4.8229327 0.75899028 6.28647349 0.9375 7.75 C1.06801758 8.84441406 1.06801758 8.84441406 1.20117188 9.9609375 C1.66031596 13.95005687 1.66031596 13.95005687 2.53031921 17.86190796 C3.14338681 20.65272885 3.08766478 23.24263798 3.05004883 26.10009766 C3.03706253 27.33724518 3.02407623 28.5743927 3.01069641 29.84902954 C3.00171137 30.50973072 2.99272633 31.1704319 2.98346901 31.85115433 C2.95656401 33.95052075 2.93884966 36.04977687 2.92399597 38.14926147 C2.8815997 44.11972665 2.8355503 50.08999266 2.75317383 56.06005859 C2.46479199 77.65806107 2.61563248 99.15820046 9.42024231 119.92300415 C10 122 10 122 10 125 C-5.81741489 126.50801625 -21.07322849 119.59435774 -33.1875 109.8125 C-41.58289406 101.97679888 -47.30045455 92.80847591 -51 82 C-51.31839844 81.15308594 -51.63679687 80.30617188 -51.96484375 79.43359375 C-56.92645984 64.45728713 -54.54112085 47.85228967 -47.875 33.875 C-44.54230721 27.30271139 -40.26274013 22.11977945 -35 17 C-34.31292969 16.29230469 -33.62585938 15.58460938 -32.91796875 14.85546875 C-24.33282682 6.52517333 -12.1727569 0 0 0 Z " fill="#F1AD9A" transform="translate(250,393)"/>
<path d="M0 0 C9.24 0 18.48 0 28 0 C28.01417969 4.18042969 28.02835937 8.36085938 28.04296875 12.66796875 C28.06827799 16.03698481 28.09851565 19.40587793 28.13204193 22.77481842 C28.16590469 26.31147087 28.19142689 29.84769873 28.19555664 33.38452148 C28.20072116 37.45867569 28.24606452 41.53157952 28.29296875 45.60546875 C28.2890361 46.8507988 28.28510345 48.09612885 28.28105164 49.37919617 C28.47729212 61.37018922 32.10624251 72.76222145 40 82 C41.29353331 83.00408923 42.60590208 83.98446769 43.9375 84.9375 C46.15323351 86.71204763 46.91113835 87.4378535 47.359375 90.2734375 C46.74537939 99.34382721 42.83190478 107.95060414 36 114 C26.41363898 120.53769497 16.30540037 120.97526104 5 120 C-2.98871303 118.30418624 -9.27669201 113.69846008 -14.3125 107.34375 C-16.93831679 103.250565 -17.81498831 98.99203298 -18.60546875 94.234375 C-18.97206106 91.83973347 -18.97206106 91.83973347 -20 89 C-19.05640625 88.30390625 -19.05640625 88.30390625 -18.09375 87.59375 C-9.24288136 80.44907291 -2.80918254 70.40961451 -1 59 C-0.88903354 57.00736596 -0.82458883 55.01185468 -0.79467773 53.01635742 C-0.77473251 51.83551071 -0.75478729 50.654664 -0.73423767 49.43803406 C-0.71752518 48.17328751 -0.70081268 46.90854095 -0.68359375 45.60546875 C-0.66281265 44.30297684 -0.64203156 43.00048492 -0.62062073 41.65852356 C-0.56561816 38.20790737 -0.51611341 34.75723365 -0.46777344 31.30651855 C-0.41739836 27.78046603 -0.36184637 24.25449528 -0.30664062 20.72851562 C-0.1988395 13.81907371 -0.09964726 6.90958359 0 0 Z " fill="#F5C7BA" transform="translate(434,380)"/>
<path d="M0 0 C18.68493884 9.23323693 38.76069762 11.2926934 58.83056641 4.95458984 C64.01796287 3.06596879 68.89442317 0.517041 73.7421875 -2.10546875 C78.85528616 -4.83703857 83.21410792 -5.66673762 88.9375 -4.8125 C92.41538853 -3.17507602 94.99529906 -1.0004925 97.375 2 C98.49953737 6.37320088 98.32289664 10.53029447 97.3125 14.875 C93.88431008 20.64059215 87.89877385 23.50131829 82 26.1875 C81.25637207 26.5292627 80.51274414 26.87102539 79.74658203 27.22314453 C52.61608554 39.441959 24.42310979 40.57502312 -3.5 30.375 C-12.27544733 26.98159508 -21.62539662 23.17820923 -27.0625 15.1875 C-28.44972065 11.34331143 -28.66461344 7.78116722 -27.2109375 3.93359375 C-20.53386248 -7.76205701 -10.29709093 -5.45763059 0 0 Z " fill="#1C0741" transform="translate(413.0625,564.8125)"/>
<path d="M0 0 C3.13948349 2.53407345 3.58018949 4.79678907 4.3125 8.6875 C6.31598194 17.16141085 9.73972125 21.83665624 17.125 26.4375 C25.67472072 31.32495717 36.2578578 31.09583028 45.8359375 29.5390625 C53.86117166 27.14557161 59.82684617 22.19420998 64 15 C64.94509008 12.41528386 65.6172362 9.8012797 66.25 7.125 C66.42273438 6.43664062 66.59546875 5.74828125 66.7734375 5.0390625 C67.19271642 3.36194682 67.59785544 1.68130651 68 0 C68.92619141 0.38091797 68.92619141 0.38091797 69.87109375 0.76953125 C75.519487 3.064997 81.19123517 5.14793006 87 7 C87.70372372 17.90771759 83.96831755 25.71231387 77.390625 34.32421875 C68.90574795 43.82118081 56.601639 51.3453741 43.64746094 52.14526367 C41.01484691 52.17003432 38.38273898 52.18565376 35.75 52.1875 C34.84636719 52.19974609 33.94273437 52.21199219 33.01171875 52.22460938 C17.88250776 52.25726235 4.89556373 46.61231684 -6 36 C-13.39393777 27.34299033 -17.73915509 18.45690393 -17 7 C-16.10796875 6.74605469 -15.2159375 6.49210937 -14.296875 6.23046875 C-13.12640625 5.88628906 -11.9559375 5.54210937 -10.75 5.1875 C-9.58984375 4.85105469 -8.4296875 4.51460938 -7.234375 4.16796875 C-4.27798685 3.10038414 -2.35652294 2.03570917 0 0 Z " fill="#F1AD9B" transform="translate(413,469)"/>
<path d="M0 0 C4.97728345 2.84128326 8.2832433 6.90401115 11.125 11.8125 C12.74385617 18.61169592 12.13475134 24.25157514 8.75 30.4375 C5.25033763 35.53700802 1.6207395 38.60032803 -4.25 40.4375 C-10.68212841 41.54756087 -15.67304198 40.50210161 -21.203125 37.0703125 C-25.44096953 33.68974187 -28.53714151 29.57607546 -30.25 24.4375 C-30.99161384 17.59276903 -30.33888498 12.09126689 -26.25 6.4375 C-19.19696033 -1.17027313 -9.71900944 -4.31955975 0 0 Z " fill="#62527B" transform="translate(541.25,379.5625)"/>
<path d="M0 0 C4.97728345 2.84128326 8.2832433 6.90401115 11.125 11.8125 C12.74385617 18.61169592 12.13475134 24.25157514 8.75 30.4375 C5.25033763 35.53700802 1.6207395 38.60032803 -4.25 40.4375 C-10.68212841 41.54756087 -15.67304198 40.50210161 -21.203125 37.0703125 C-25.44096953 33.68974187 -28.53714151 29.57607546 -30.25 24.4375 C-30.99161384 17.59276903 -30.33888498 12.09126689 -26.25 6.4375 C-19.19696033 -1.17027313 -9.71900944 -4.31955975 0 0 Z " fill="#62527B" transform="translate(373.25,379.5625)"/>
</svg>
